<svg width="24" height="24" viewBox="0 0 602 602" fill="none" xmlns="http://www.w3.org/2000/svg">
<path d="M96.0252 436.396L62.1761 487.17L114.83 539.824L165.604 505.975C191.931 522.899 218.258 534.182 250.226 539.824L263.39 600H338.61L351.774 539.824C385.623 532.302 410.069 521.019 436.396 505.975L487.17 539.824L539.824 487.17L505.975 436.396C522.899 410.069 534.182 385.623 539.824 351.774L600 338.61V263.39L539.824 250.226C532.302 216.377 522.899 191.931 505.975 165.604L539.824 114.83L487.17 62.1761L436.396 96.0252C411.95 79.1006 385.623 67.8176 351.774 62.1761L338.61 2H263.39L250.226 62.1761C218.258 67.8176 193.811 79.1006 165.604 96.0252L116.711 64.0566L62.1761 118.591L96.0252 169.365C79.1006 195.692 67.8176 220.138 62.1761 253.987L2 267.151V342.371L62.1761 355.535C69.6981 387.503 80.9811 411.95 96.0252 436.396ZM301 114.83C404.428 114.83 489.05 199.453 489.05 302.881C489.05 406.308 404.428 490.931 301 490.931C197.572 490.931 112.95 406.308 112.95 302.881C112.95 199.453 197.572 114.83 301 114.83Z" fill="#7C53D1" stroke="#9D70F9" stroke-width="3"/>
<rect x="369.623" y="298.479" width="312.767" height="100.088" transform="rotate(45 369.623 298.479)" fill="#111111"/>
<path fill-rule="evenodd" clip-rule="evenodd" d="M264.292 168.856C310.355 156.107 361.763 167.839 397.979 203.997C451.545 257.545 451.538 344.392 397.965 398.019C344.416 451.556 257.582 451.532 204.016 397.985C167.824 361.737 156.082 310.351 168.839 264.266L258.754 354.201L334.061 334.018L354.217 258.794L264.292 168.856Z" fill="#FA5252"/>
</svg>
